Coordinates
version=1
nRows=14
nColumns=24
inDegrees=yes

Units are S.I. units (second, meters, Newtons, ...)
Angles are in degrees.

endheader
time	pelvis_tilt	pelvis_list	pelvis_rotation	pelvis_tx	pelvis_ty	pelvis_tz	hip_flexion_r	hip_adduction_r	hip_rotation_r	knee_angle_r	ankle_angle_r	subtalar_angle_r	mtp_angle_r	hip_flexion_l	hip_adduction_l	hip_rotation_l	knee_angle_l	ankle_angle_l	subtalar_angle_l	mtp_angle_l	lumbar_extension	lumbar_bending	lumbar_rotation
      1.02133333	     -1.13940429	     -3.04501693	     -1.27708012	      0.44413638	      1.01942320	      0.34449349	     11.02129100	      5.97634868	     -6.24090971	    -13.08096731	     -0.33731264	     -9.99237469	     -4.68128947	     20.94491052	    -10.40080185	    -11.79478585	    -75.52461340	      0.86452918	    -15.05231994	    -15.38185143	     -7.88214852	      7.24655897	      5.56716737
      1.02550000	     -1.00261116	     -2.94656680	     -1.45752134	      0.44896180	      1.02025777	      0.34509220	     10.44392915	      5.92355835	     -6.07957182	    -12.83924667	     -0.21434321	     -9.85598967	     -4.61623600	     21.37713670	    -10.30371399	    -11.89689342	    -75.13466815	      1.10416089	    -14.90589897	    -15.42052477	     -8.04492861	      7.10359710	      5.66595168
      1.02966667	     -0.79143116	     -2.83781645	     -1.66187148	      0.45379395	      1.02121738	      0.34579615	      9.77765364	      5.86603960	     -5.87496354	    -12.58341374	     -0.04084073	     -9.72271016	     -4.53037818	     21.69400268	    -10.21589975	    -12.04069943	    -74.65797947	      1.24465577	    -14.73827239	    -15.46955344	     -8.29628107	      6.92768653	      5.83618043
      1.03383333	     -0.62024957	     -2.73711705	     -1.85618383	      0.45861088	      1.02207205	      0.34645799	      9.15798774	      5.81017598	     -5.67695357	    -12.32717260	      0.07961218	     -9.62212496	     -4.44411655	     22.05038268	    -10.12965267	    -12.17015956	    -74.14647986	      1.41072857	    -14.59974269	    -15.51384854	     -8.50177925	      6.75756967	      5.98729941
      1.03800000	     -0.47332176	     -2.65125745	     -2.04179958	      0.46339047	      1.02283457	      0.34711591	      8.57162873	      5.76664345	     -5.48325809	    -12.08331181	      0.23276758	     -9.52088747	     -4.35996593	     22.43124816	    -10.05893078	    -12.28277247	    -73.59856804	      1.55591142	    -14.43374473	    -15.55135282	     -8.68222213	      6.60372981	      6.12129110
      1.04216667	     -0.33057167	     -2.56014091	     -2.21953072	      0.46816045	      1.02356285	      0.34771153	      7.99506042	      5.70771925	     -5.29904893	    -11.84633473	      0.36421051	     -9.42513085	     -4.28777019	     22.80189737	     -9.97036670	    -12.38446122	    -72.99576132	      1.71728785	    -14.23754375	    -15.57827909	     -8.84982284	      6.47293264	      6.23383838
      1.04633333	     -0.18546871	     -2.46892361	     -2.40550860	      0.47291427	      1.02426063	      0.34836633	      7.41832236	      5.65013792	     -5.10072289	    -11.61182262	      0.50874999	     -9.32245275	     -4.20816686	     23.15240497	     -9.89408804	    -12.50318588	    -72.34513284	      1.87123693	    -14.04507196	    -15.60417991	     -9.03046405	      6.30977146	      6.35927854
      1.05050000	      0.00315281	     -2.39646073	     -2.61703551	      0.47765375	      1.02499483	      0.34908446	      6.79139037	      5.61514230	     -4.85512889	    -11.36985488	      0.65794632	     -9.24881672	     -4.07913095	     23.43001488	     -9.85449237	    -12.65705355	    -71.64331613	      2.01412829	    -13.90863809	    -15.64182668	     -9.26772746	      6.16485569	      6.54515855
      1.05466667	      0.04015118	     -2.32895751	     -2.74132933	      0.48236881	      1.02541612	      0.34956897	      6.34627301	      5.56735803	     -4.72742122	    -11.15652018	      0.76155312	     -9.18828778	     -4.03302400	     23.90563645	     -9.76835006	    -12.68851134	    -70.93032121	      2.16507908	    -13.69293531	    -15.65008276	     -9.31240660	      6.05465064	      6.58638822
      1.05883333	      0.23314870	     -2.25518266	     -2.95758032	      0.48707335	      1.02608583	      0.35029991	      5.72702406	      5.52289740	     -4.47777308	    -10.93474763	      0.93143876	     -9.08593702	     -3.91475347	     24.14295782	     -9.73265688	    -12.85653362	    -70.13131484	      2.34122887	    -13.49967920	    -15.67229599	     -9.55637163	      5.90141620	      6.73633187
      1.06300000	      0.29939998	     -2.18706444	     -3.12260553	      0.49177814	      1.02650313	      0.35089833	      5.25615641	      5.47751570	     -4.29338469	    -10.73255526	      1.06194048	     -9.02540116	     -3.81774331	     24.53209655	     -9.67320848	    -12.94894349	    -69.31079369	      2.51289125	    -13.28857137	    -15.68558522	     -9.64317691	      5.77062280	      6.82369553
      1.06716667	      0.31937683	     -2.13837035	     -3.23098973	      0.49645039	      1.02678365	      0.35135427	      4.84155951	      5.44351809	     -4.17511553	    -10.53706336	      1.16213353	     -8.99029941	     -3.78024472	     24.98482366	     -9.60245581	    -12.97007943	    -68.46463793	      2.66450968	    -13.09265216	    -15.68809808	     -9.67304317	      5.68162250	      6.86005324
      1.07133333	      0.46418075	     -2.06047721	     -3.45244003	      0.50112779	      1.02729193	      0.35210850	      4.29078175	      5.39047942	     -3.90520483	    -10.33952773	      1.30345569	     -8.94343376	     -3.64552286	     25.22065041	     -9.56893439	    -13.15609654	    -67.52086862	      2.82066291	    -12.92158377	    -15.70347845	     -9.86565803	      5.51494139	      7.03689032
      1.07550000	      0.45470388	     -2.02509039	     -3.56218575	      0.50577605	      1.02744544	      0.35256347	      3.92103621	      5.36937804	     -3.78068890	    -10.16874079	      1.42564635	     -8.89802901	     -3.60902885	     25.67364533	     -9.51483865	    -13.18147480	    -66.59555064	      3.00849156	    -12.73788952	    -15.70447771	     -9.86740336	      5.43666660	      7.04154006
